<svg id="Layer_1" data-name="Layer 1" xmlns="http://www.w3.org/2000/svg" xmlns:xlink="http://www.w3.org/1999/xlink" viewBox="0 0 200 200"><defs><style>.cls-1,.cls-5{fill:url(#linear-gradient);}.cls-1{clip-rule:evenodd;}.cls-2,.cls-4{fill:#679e63;}.cls-3{fill:#333;}.cls-3,.cls-4,.cls-5{fill-rule:evenodd;}.cls-6{clip-path:url(#clip-path);}.cls-7{fill:none;}.cls-8{fill:url(#linear-gradient-3);}.cls-9{fill:url(#linear-gradient-4);}.cls-10{fill:url(#linear-gradient-5);}.cls-11{fill:url(#linear-gradient-6);}.cls-12{fill:url(#linear-gradient-7);}.cls-13{fill:url(#linear-gradient-8);}</style><linearGradient id="linear-gradient" x1="82.03" y1="75.87" x2="65.26" y2="110.08" gradientUnits="userSpaceOnUse"><stop offset="0" stop-color="#3f873f"/><stop offset="0.33" stop-color="#3f8b3d"/><stop offset="0.64" stop-color="#3e9637"/><stop offset="0.93" stop-color="#3da92e"/><stop offset="1" stop-color="#3dae2b"/></linearGradient><clipPath id="clip-path"><path id="_Clipping_Path_" data-name="&lt;Clipping Path&gt;" class="cls-1" d="M75.6,67.89a2.24,2.24,0,0,0-2.24,0L54.8,78.6a2.24,2.24,0,0,0-1.13,2V102a2.24,2.24,0,0,0,1.13,1.94l18.56,10.72a2.24,2.24,0,0,0,2.24,0l18.56-10.72A2.23,2.23,0,0,0,95.28,102V80.55a2.23,2.23,0,0,0-1.12-2Z"/></clipPath><linearGradient id="linear-gradient-3" x1="71.65" y1="93.78" x2="118.71" y2="59" gradientUnits="userSpaceOnUse"><stop offset="0.14" stop-color="#3f873f"/><stop offset="0.4" stop-color="#529f44"/><stop offset="0.71" stop-color="#63b649"/><stop offset="0.91" stop-color="#6abf4b"/></linearGradient><linearGradient id="linear-gradient-4" x1="53.02" y1="64.03" x2="95.94" y2="64.03" gradientUnits="userSpaceOnUse"><stop offset="0.09" stop-color="#6abf4b"/><stop offset="0.29" stop-color="#63b649"/><stop offset="0.6" stop-color="#529f44"/><stop offset="0.86" stop-color="#3f873f"/></linearGradient><linearGradient id="linear-gradient-5" x1="53.02" y1="91.26" x2="95.94" y2="91.26" xlink:href="#linear-gradient-4"/><linearGradient id="linear-gradient-6" x1="53.02" y1="103.52" x2="95.94" y2="103.52" xlink:href="#linear-gradient-4"/><linearGradient id="linear-gradient-7" x1="53.02" y1="109.06" x2="95.94" y2="109.06" xlink:href="#linear-gradient-4"/><linearGradient id="linear-gradient-8" x1="102.19" y1="74.85" x2="75.72" y2="128.86" xlink:href="#linear-gradient"/></defs><title>tech_</title><path class="cls-2" d="M98.88,159.69a3.63,3.63,0,0,1-1.84-.5l-5.88-3.47c-.88-.49-.45-.67-.16-.77a11.88,11.88,0,0,0,2.66-1.21.44.44,0,0,1,.43,0l4.52,2.68a.57.57,0,0,0,.54,0l17.61-10.16a.58.58,0,0,0,.26-.48V125.51a.57.57,0,0,0-.27-.49L99.16,114.87a.54.54,0,0,0-.55,0L81,125a.58.58,0,0,0-.28.49v20.31a.54.54,0,0,0,.28.47l4.82,2.79c2.62,1.3,4.22-.24,4.22-1.78V127.24a.51.51,0,0,1,.51-.51h2.24a.52.52,0,0,1,.51.51V147.3c0,3.49-1.91,5.49-5.22,5.49a7.55,7.55,0,0,1-4-1.1L79.43,149a3.71,3.71,0,0,1-1.84-3.21V125.51a3.7,3.7,0,0,1,1.84-3.21L97,112.13a3.86,3.86,0,0,1,3.7,0l17.6,10.17a3.71,3.71,0,0,1,1.84,3.21v20.31a3.71,3.71,0,0,1-1.84,3.21l-17.6,10.16A3.71,3.71,0,0,1,98.88,159.69Z"/><path class="cls-2" d="M104.32,145.69c-7.7,0-9.32-3.53-9.32-6.5a.51.51,0,0,1,.51-.51h2.28a.51.51,0,0,1,.5.43c.35,2.32,1.37,3.49,6,3.49,3.71,0,5.29-.84,5.29-2.81,0-1.13-.45-2-6.21-2.54-4.82-.47-7.8-1.54-7.8-5.39,0-3.55,3-5.67,8-5.67,5.64,0,8.43,2,8.79,6.16a.51.51,0,0,1-.51.55H109.6a.51.51,0,0,1-.49-.4c-.55-2.43-1.88-3.21-5.5-3.21-4,0-4.52,1.41-4.52,2.46,0,1.28.56,1.66,6,2.38s8,1.73,8,5.53S109.9,145.69,104.32,145.69Z"/><path class="cls-2" d="M129.7,124.39a3.39,3.39,0,1,1-3.39-3.4A3.41,3.41,0,0,1,129.7,124.39Zm-6.24,0a2.85,2.85,0,1,0,2.84-2.84A2.85,2.85,0,0,0,123.46,124.38Zm1.57-1.9h1.31c.45,0,1.33,0,1.33,1a.87.87,0,0,1-.72.93c.53,0,.56.38.63.87a3.76,3.76,0,0,0,.2,1H127c0-.18-.14-1.15-.14-1.2a.34.34,0,0,0-.4-.32h-.66v1.52H125Zm.72,1.67h.59a.51.51,0,0,0,.58-.53c0-.52-.36-.52-.56-.52h-.61Z"/><path class="cls-3" d="M44.37,80.21a2.25,2.25,0,0,0-1.12-2L24.58,67.51a2.32,2.32,0,0,0-1-.3h-.2a2.4,2.4,0,0,0-1,.3L3.67,78.25a2.28,2.28,0,0,0-1.13,2l0,28.92a1.09,1.09,0,0,0,.57,1,1.07,1.07,0,0,0,1.12,0l11.09-6.35a2.25,2.25,0,0,0,1.12-2V88.29a2.27,2.27,0,0,1,1.13-2l4.72-2.72a2.3,2.3,0,0,1,1.13-.3,2.21,2.21,0,0,1,1.12.3l4.72,2.72a2.27,2.27,0,0,1,1.13,2V101.8a2.26,2.26,0,0,0,1.13,2l11.09,6.35a1.09,1.09,0,0,0,1.13,0,1.12,1.12,0,0,0,.56-1Z"/><path class="cls-3" d="M134.17,40.46a1.13,1.13,0,0,0-1.68,1V70.08a.79.79,0,0,1-1.18.68l-4.67-2.69a2.28,2.28,0,0,0-2.26,0L105.71,78.85a2.25,2.25,0,0,0-1.12,2v21.55a2.25,2.25,0,0,0,1.12,2l18.67,10.79a2.28,2.28,0,0,0,2.26,0l18.67-10.79a2.24,2.24,0,0,0,1.13-2V48.62a2.28,2.28,0,0,0-1.16-2Zm-1.73,54.81a.56.56,0,0,1-.29.49l-6.4,3.69a.58.58,0,0,1-.57,0l-6.41-3.69a.58.58,0,0,1-.28-.49v-7.4a.58.58,0,0,1,.28-.49l6.41-3.7a.58.58,0,0,1,.57,0l6.41,3.7a.58.58,0,0,1,.28.49Z"/><path class="cls-3" d="M196.34,87.67a2.25,2.25,0,0,0,1.12-2V80.5a2.26,2.26,0,0,0-1.12-2L177.79,67.78a2.28,2.28,0,0,0-2.26,0L156.86,78.55a2.28,2.28,0,0,0-1.12,2v21.55a2.24,2.24,0,0,0,1.14,2l18.54,10.57a2.26,2.26,0,0,0,2.21,0l11.22-6.23a1.13,1.13,0,0,0,0-2L170.08,95.61a1.11,1.11,0,0,1-.56-1V87.88a1.11,1.11,0,0,1,.56-1l5.85-3.37a1.12,1.12,0,0,1,1.12,0l5.85,3.37a1.11,1.11,0,0,1,.56,1V93.2a1.14,1.14,0,0,0,1.7,1Z"/><path class="cls-4" d="M176.38,86.66a.47.47,0,0,1,.43,0l3.59,2.07a.44.44,0,0,1,.21.38v4.13a.44.44,0,0,1-.21.38l-3.59,2.06a.42.42,0,0,1-.43,0l-3.58-2.06a.44.44,0,0,1-.21-.38V89.11a.44.44,0,0,1,.21-.38Z"/><path id="_Clipping_Path_2" data-name="&lt;Clipping Path&gt;" class="cls-5" d="M75.6,67.89a2.24,2.24,0,0,0-2.24,0L54.8,78.6a2.24,2.24,0,0,0-1.13,2V102a2.24,2.24,0,0,0,1.13,1.94l18.56,10.72a2.24,2.24,0,0,0,2.24,0l18.56-10.72A2.23,2.23,0,0,0,95.28,102V80.55a2.23,2.23,0,0,0-1.12-2Z"/><g class="cls-6"><path class="cls-7" d="M73.32,67.89,54.72,78.6a2.31,2.31,0,0,0-1.2,2V102a2.2,2.2,0,0,0,.58,1.43L75,67.66A2.3,2.3,0,0,0,73.32,67.89Z"/><path class="cls-7" d="M75.1,114.87a2.2,2.2,0,0,0,.53-.22l18.58-10.72A2.29,2.29,0,0,0,95.38,102V80.55A2.24,2.24,0,0,0,94.7,79Z"/><path class="cls-8" d="M94.2,78.6,75.58,67.89a2.07,2.07,0,0,0-.58-.23L54.1,103.42a2.52,2.52,0,0,0,.62.51l18.65,10.72a2.24,2.24,0,0,0,1.73.22L94.7,79A2.69,2.69,0,0,0,94.2,78.6Z"/><path class="cls-7" d="M95.38,102V80.55a2.31,2.31,0,0,0-1.18-2L75.58,67.89a2.31,2.31,0,0,0-.68-.25L95.31,102.5A2.09,2.09,0,0,0,95.38,102Z"/><path class="cls-7" d="M54.72,78.6a2.31,2.31,0,0,0-1.2,2V102a2.33,2.33,0,0,0,1.2,1.94l18.65,10.72a2.21,2.21,0,0,0,1.44.28l-20-36.39Z"/><polygon class="cls-9" points="72.74 63.95 72.49 64.1 72.83 64.1 72.74 63.95"/><path class="cls-10" d="M94.21,103.93a2.36,2.36,0,0,0,1.1-1.43L74.9,67.64a2.24,2.24,0,0,0-1.58.25L54.83,78.54l20,36.39a2.28,2.28,0,0,0,.82-.28Z"/><polygon class="cls-11" points="95.94 103.59 95.82 103.38 95.82 103.66 95.94 103.59"/><path class="cls-12" d="M94.21,103.93,75.63,114.65a2.28,2.28,0,0,1-.82.28l.37.68,20.64-12v-.28l-.51-.88A2.36,2.36,0,0,1,94.21,103.93Z"/><path class="cls-13" d="M94.21,103.93,75.63,114.65a2.28,2.28,0,0,1-.82.28l.37.68,20.64-12v-.28l-.51-.88A2.36,2.36,0,0,1,94.21,103.93Z"/></g></svg>